<?xml version="1.0" encoding="UTF-8"?>
<svg version="1.1" viewBox="0 0 2048 1139" width="586" height="326" xmlns="http://www.w3.org/2000/svg">
<path transform="translate(1085,707)" d="m0 0h52l4 8 15 37 14 34 2 9 2-1 15-39 15-40 4-8h52v21l-1 1-10 1v78l10 1 1 2v20h-47v-22l8-1v-65l-4 7-28 70-4 9-2 2h-21l-3-5-9-21-15-36-9-21-3-4 1 64 8 1v22h-46l-1-2v-20h12v-80h-12z" fill="#530D76"/>
<path transform="translate(803,339)" d="m0 0h14l13 3 12 7 8 7 7 11 5 13 1 5h68l5 5 13 25 10 19 6 11 4 1 121-1 10-16 16-25 5-5 182-1 28 1 1 9-2 3-14 1-189 1-6 11-11 18-11 17-1 1-103 1h-33l-6-2-12-21-15-28-6-9h-60l-4 14-7 11-5 6-10 7-8 4-12 3h-16l-12-4-11-6-9-8-5-7-6-15-1-3v-20l5-15 6-9 9-9 11-7 9-3zm-1 16-9 3-6 4-5 4-7 10-3 9v17l4 10 7 10 11 7 14 3 11-1 10-4 9-6 6-9 3-8 2-8-1-9-3-11-7-10-7-6-9-4-5-1z" fill="#DE5D8E"/>
<path transform="translate(908,115)" d="m0 0h10l14 3 13 7 10 9 8 14 3 10v3h92l8 1 7 9 14 20 8 12 11 16 1 1 220 1 5 4 1 4-3 5-3 2h-226l-5-5-7-9-26-39-3-5-2-1h-91l-5 16-6 9-5 6-11 8-10 4-13 3h-9l-12-3-13-7-10-9-6-8-5-10-2-8v-18l3-10 5-10 7-9 10-8 13-6zm2 15-13 3-11 8-7 10-4 12v12l3 10 7 10 8 7 11 4 4 1h12l12-4 11-8 7-11 1-4v-21l-3-9-7-9-8-6-10-4z" fill="#DE5D8E"/>
<path transform="translate(913,706)" d="m0 0 37 1 7 10 30 48 12 18 1 3h2l-1-3v-53l-10-1v-22h47v22h-10v102h-27l-8-11-13-20-16-25-14-21-1 54 10 1v22h-47v-22h10v-80h-10v-22z" fill="#530D76"/>
<path transform="translate(1732,706)" d="m0 0 46 1v21l-1 1h-9v101l-1 1h-27l-16-24-11-17-16-25-7-10v-2h-2v56h10l1 1v20l-1 1h-46l-1-1v-20l1-1 9-1v-78l-9-1-1-1v-20l1-1h38l36 57 11 18 3 3v-55l-10-1v-22z" fill="#530D76"/>
<path transform="translate(1207,483)" d="m0 0h120l5 4 1 5-5 5-2 1-113 1-13 23-20 34-3 3-120 1h-61l-3-1-2 12-7 13-7 8-10 7-8 4-13 3h-13l-12-3-12-7-11-10-7-12-3-9-1-6v-13l3-13 6-12 12-12 12-7 13-3h15l12 3 14 8 8 8 6 10 4 10 1 7 176-1 13-22 10-17 11-19zm-273 31-12 4-10 8-7 11-3 9v14l3 10 7 9 8 7 9 4 5 1h12l11-3 10-7 7-8 4-9 1-5v-10l-4-13-5-8-9-8-8-4-7-2z" fill="#DE5D8E"/>
<path transform="translate(310,706)" d="m0 0 75 1 11 4 9 6 7 8 4 9v17l-3 8-9 10-6 3 6 8 5 11 4 15 9 1 1 1v23h-36l-3-14-3-17-4-11-5-4-6-2-15-1v26l10 1 1 21-1 1h-51v-22h12v-80h-12zm40 23v31h23l8-3 5-6 1-8-3-7-6-5-8-2z" fill="#530D76"/>
<path transform="translate(1413,706)" d="m0 0h49l25 1 11 4 9 6 7 8 4 9 1 12-3 11-5 8-9 6-2 2 6 7 5 11 3 12v3l10 1 1 1v23h-36l-5-25-4-16-6-5-7-2-15-1 1 26 10 1 1 3v18l-1 1h-51v-22h13v-80h-13v-22zm39 23v30l1 1h22l8-3 5-6 1-9-3-6-6-5-8-2z" fill="#520D76"/>
<path transform="translate(1538,707)" d="m0 0h99v42h-27v-17h-32v24h24l1 1v22l-1 1h-23v28l31 1v-22h27v44h-99v-22h13v-77h-12l-1-1z" fill="#520C76"/>
<path transform="translate(1327,705)" d="m0 0h16l14 3 12 7 12 11 7 11 5 12 2 10v20l-3 13-8 16-11 12-10 7-13 5-9 2h-13l-15-4-11-6-12-11-7-10-5-11-3-12v-21l3-12 5-12 8-11 7-7 15-9zm3 25-10 4-10 9-5 11-2 7v16l4 13 6 8 8 7 8 3h12l8-3 10-9 4-5 3-9 1-6v-14l-2-9-5-10-7-7-10-5-4-1z" fill="#530D76"/>
<path transform="translate(1840,705)" d="m0 0h16l13 3 11 6 12 10 7 10 6 13 3 14v17l-4 15-7 14-8 10-10 8-13 6-13 3h-11l-16-4-11-6-10-9-7-8-7-14-3-10-1-6v-15l3-14 8-17 11-12 8-6 12-6zm2 25-14 7-6 7-5 11-2 11 1 13 3 9 5 8 8 8 10 4h12l8-3 10-9 5-8 3-13v-11l-3-12-6-11-7-6-8-4-4-1z" fill="#530D76"/>
<path transform="translate(538,703)" d="m0 0h11l12 2 8 4 11 8 5 6 7 2v24h-29l-3-12-4-5-4-2-10-1-9 3-3 4v6l3 5 9 4 26 9 10 5 8 8 4 9 1 4v16l-3 9-7 10-10 7-8 4-6 2h-17l-14-3-11-6-8-9-2-4-8-1-1-1v-17l1-7h29l2 12 3 5 9 4 9 1 7-3 3-4 1-6-3-7-8-4-27-9-10-6-6-7-5-10-1-3v-16l4-11 6-8 9-6 12-4z" fill="#530D76"/>
<path transform="translate(1031,259)" d="m0 0h21l10 3 10 6 10 9 7 10 5 13 1 4 233 1 5 6-1 5-5 4h-233l-1 7-5 12-8 11-7 6-11 6-16 4h-10l-16-4-11-6-10-10-8-16-3-11v-12l3-13 7-14 6-7 10-7 13-6zm4 15-10 3-9 6-7 8-5 12-1 4v11l4 12 6 9 9 7 6 3 5 1h18l9-3 9-7 5-6 4-9 2-6v-12l-4-13-6-9-10-7-11-4z" fill="#DE5D8E"/>
<path transform="translate(826,707)" d="m0 0h33l11 33 16 50 6 18 9 1v22h-47l-1-1v-20l1-1h11l-5-17h-38l-5 17h12l1 21-1 1h-46l-1-1 1-21 8-1 3-8 26-78 5-14zm14 24-3 9-8 27v3l22 1 2-1-2-10-7-22-3-7z" fill="#530D76"/>
<path transform="translate(230,705)" d="m0 0h16l12 3 11 7 1 1 19 1v27l-1 1h-24l-7-8-8-4-7-2h-9l-9 4-7 5-6 10-4 13v13l4 13 4 6 5 5 8 5 8 2 10-1 10-5 7-8 3-4 17 4 9 4-4 10-10 12-10 7-12 5-15 3h-8l-14-3-14-7-10-9-7-10-6-12-4-14v-17l4-16 5-12 8-10 9-8 14-8z" fill="#540D76"/>
<path transform="translate(598,706)" d="m0 0 113 1v37l-1 1h-25l-1-1-1-15-16-1v81h13v22h-54v-22h13v-81l-14 1-1 15-2 1h-24l-1-37z" fill="#550E76"/>
<path transform="translate(723,707)" d="m0 0h53v22h-13v80h13v22h-53v-22h12v-80h-12z" fill="#540D76"/>
<path transform="translate(486,706)" d="m0 0 3 1v22h-13v80h13v22h-53v-22h12v-80h-12v-22z" fill="#530D76"/>
<path transform="translate(1411,886)" d="m0 0 4 1 7 14 3 7 3-4 7-16 4-2 3 2v29h-4l-1-17-1-2-8 18-4 1-11-22v22h-4v-29z" fill="#C95183"/>
<path transform="translate(1146,886)" d="m0 0 5 1 8 17 2 5 2-2 8-19 5-2 1 1 1 29-4 1v-23h-2l-3 9-6 15-3-1-7-14-3-7-1 21-2 1-2-1v-30z" fill="#C44E81"/>
<path transform="translate(424,886)" d="m0 0 5 2 4 8 5 13 3-4 8-18 4-1 1 1 1 19v11l-3 1-2-22-10 22-3-1-10-24-1 25h-3v-31z" fill="#C44F81"/>
<path transform="translate(1358,886)" d="m0 0h11l6 4 4 7v11l-3 5-6 5-3 1h-8l-7-4-5-8v-9l5-8 3-3zm3 3-6 3-4 7v7l4 7 4 2h9l5-4 2-5v-8l-4-6-6-3z" fill="#C24E80"/>
<path transform="translate(739,886)" d="m0 0h10l6 3 5 8 1 7-3 8-6 5-5 2h-7l-7-4-4-6-1-3v-8l5-8zm2 3-6 4-3 7 1 9 4 5 2 1h10l5-5 2-4v-8l-4-6-6-3z" fill="#C44F81"/>
<path transform="translate(932,887)" d="m0 0h18l6 4 3 7v8l-3 6-6 5-3 1h-14l-1-1-1-8v-11zm5 3-1 1v23l1 1h9l6-3 3-6v-7l-3-6-7-3z" fill="#C34E81"/>
<path transform="translate(1608,887)" d="m0 0h14l5 2 2 4-1 7-5 4 2 5 4 6v3l-4-1-7-10-4-2-1 12h-4l-1-8zm6 3-1 1v9l1 1h8l3-4-1-5-4-2z" fill="#C64F82"/>
<path transform="translate(1714,887)" d="m0 0h20v3h-15v11h14v3h-14l1 10 15 1v3h-20l-1-2z" fill="#C54F82"/>
<path transform="translate(1473,887)" d="m0 0h19l1 3h-15v11h14v3l-14 1v9l16 1v3l-16 1-5-2z" fill="#C64F82"/>
<path transform="translate(1660,887)" d="m0 0h3l1 22 3 5h10l1-4 1-23 5 1v19l-2 6-6 5-6 1-7-3-3-4-1-7v-17z" fill="#C54F82"/>
<path transform="translate(846,887)" d="m0 0h13l5 3 2 4-1 5-5 5 2 6 4 6v2l-4-1-7-11-6-2v13h-3l-1-21zm4 3-1 1v9l1 1h9l2-2v-6l-3-3z" fill="#C24D80"/>
<path transform="translate(989,887)" d="m0 0h14l5 3 1 1v7l-5 6 2 6 3 5v3l-4-2-6-9v-2h-6l-1 13-3-1zm6 2-3 2v9l1 1h10l2-2v-6l-4-3z" fill="#C14D80"/>
<path transform="translate(1101,886)" d="m0 0 4 2 11 26v4l-4-2-3-5h-15l-4 6h-3l8-20 5-10zm0 7-4 8-1 6h11l-1-7-3-7z" fill="#C44F81"/>
<path transform="translate(498,886)" d="m0 0 3 1 8 19 4 10v2l-4-1-3-5v-2h-15l-4 8h-3l1-5 10-23zm0 7-3 4-3 9 1 1h11l-1-6-3-7z" fill="#CB5385"/>
<path transform="translate(1040,887)" d="m0 0h19v3l-14 1-1 10h14v3l-13 1-1 9 16 1v3h-19l-1-1-1-29z" fill="#C24E80"/>
<path transform="translate(593,887)" d="m0 0h20v3l-15 1-1 10h14v3h-14l1 10 16 1v3h-20l-1-2z" fill="#C54F82"/>
<path transform="translate(792,886)" d="m0 0 2 1 1 23 3 4 5 1 5-3 2-11v-14h4v22l-3 6-3 3-8 1-6-3-3-4-1-4v-20z" fill="#C44E81"/>
<path transform="translate(1303,886)" d="m0 0h8l6 3 1 4-5-1-2-1h-8l-5 5-1 3v8l4 6 9 2 8-4-1 5-5 3h-8l-6-3-5-7-1-3v-7l4-8 4-4z" fill="#C24E80"/>
<path transform="translate(542,886)" d="m0 0h2l1 2v12l8-7 7-6 4-1-2 4-6 5-2 3h-2v5l10 11 3 2v2l-5-1-8-7-6-8-1 14-1 2h-2z" fill="#C44F81"/>
<path transform="translate(1215,886)" d="m0 0 9 1 3 3-4 1-2-1h-6l-2 2v5l5 3 8 4 1 2v7l-5 5-8 1-6-3-1-3 2-1 3 2h9l1-7-12-6-3-5 2-6 3-3z" fill="#C44F81"/>
<path transform="translate(1555,887)" d="m0 0h25v3h-9l-1 27h-4l-1-26-8-1z" fill="#C24E80"/>
<path transform="translate(677,886)" d="m0 0 5 3 7 11 6-9 4-5h2l-2 6-7 13-2 13h-2l-1-2-1-11-7-13-2-3z" fill="#C44E81"/>
<path transform="translate(1437,886)" d="m0 0 5 2v29h-4l-1-17-1-2-2 2-2-5 4-8z" fill="#DE5D8E"/>
<path transform="translate(1146,886)" d="m0 0 5 1 4 9-3 4-2-4-1 21-2 1-2-1v-30z" fill="#DC5B8D"/>
<path transform="translate(350,887)" d="m0 0h6l-1 31-4-1-1-11z" fill="#DD5C8D"/>
<path transform="translate(1714,887)" d="m0 0h1l1 22 1 2 1-7h1l1 10 15 1v3h-20l-1-2z" fill="#DE5D8E"/>
<path transform="translate(1409,889)" d="m0 0 3 1 1 5v22h-4z" fill="#CA5284"/>
<path transform="translate(542,886)" d="m0 0h2l1 2v12l2 1h-2v15l-1 2h-2z" fill="#C24D80"/>
<path transform="translate(1608,887)" d="m0 0h2l-1 13 3 1 1 3v13h-4l-1-8z" fill="#DE5D8E"/>
<path transform="translate(1566,891)" d="m0 0h1l1 11 1 3-1 2h2v10h-4z" fill="#DD5C8D"/>
<path transform="translate(1719,915)" d="m0 0h16v3h-15z" fill="#C34E81"/>
<path transform="translate(1147,899)" d="m0 0h1l1 18h-3v-17z" fill="#C34E81"/>
<path transform="translate(1438,902)" d="m0 0 3 1v14h-3z" fill="#BF4C7F"/>
<path transform="translate(687,906)" d="m0 0h4l-1 12h-2l-1-2z" fill="#DE6190"/>
<path transform="translate(492,907)" d="m0 0h12v3h-12z" fill="#C95184"/>
<path transform="translate(1437,886)" d="m0 0 3 1 1 6h-3l-3-1 1-5z" fill="#C44F81"/>
</svg>
